<?xml version="1.0" encoding="utf-8"?><svg xmlns="http://www.w3.org/2000/svg" xmlns:xlink="http://www.w3.org/1999/xlink" width="1920" height="953" preserveAspectRatio="xMidYMid" viewBox="0 0 1920 953" style="z-index:1;margin-right:-2px;display:block;background-color:rgb(255, 255, 255);animation-play-state:paused" ><g transform="translate(960,476.5) scale(1,1) translate(-960,-476.5)" style="transform:matrix(1, 0, 0, 1, 0, 0);animation-play-state:paused" ><linearGradient id="lg-0.8476177351059386" x1="0" x2="1" y1="0" y2="0" style="animation-play-state:paused" ><stop stop-color="#ff00ff" offset="0" style="animation-play-state:paused" ></stop>

  
<stop stop-color="#00ffff" offset="1" style="animation-play-state:paused" ></stop></linearGradient>
<path d="M 1595.2 477 C 1595.2 642.4 1247 825.6 1089.6 876.2 C 932.2 926.8 609.8 935.4 512.8 801.6 C 415.8 667.8 450.8 311 547.8 177.2 C 644.8 43.4 923.4 53.6 1080.8 104.2 C 1238.2 154.8 1595.2 311.6 1595.2 477" fill="url(#lg-0.8476177351059386)" opacity="0.4" style="opacity:0.4;animation-play-state:paused" ></path>
<path d="M 1554.8 477 C 1554.8 641.4 1243.2 815.6 1087 866.8 C 930.8 918 632.2 917.8 535.6 785.2 C 439 652.6 435.2 297.6 531.8 165 C 628.4 32.4 953.6 -34 1109.8 16.4 C 1266 66.8 1554.8 312.6 1554.8 477" fill="url(#lg-0.8476177351059386)" opacity="0.4" style="opacity:0.4;animation-play-state:paused" ></path>
<path d="M 1535.4 477 C 1535.4 647.6 1261.2 848.6 1098.6 901.8 C 936 955 595.2 953.4 494.6 815.2 C 394 677 412.2 289.6 512.8 151.4 C 613.4 13.2 925.2 30.6 1087.8 83.8 C 1250.4 137 1535.4 306.4 1535.4 477" fill="url(#lg-0.8476177351059386)" opacity="0.4" style="opacity:0.4;animation-play-state:paused" ></path>
<path d="M 1556.8 477 C 1556.8 633 1231.6 809.6 1083.6 857.8 C 935.6 906 661.6 885.8 570 760 C 478.4 634.2 437.2 289 528.8 163.2 C 620.4 37.4 958.2 -22.8 1106.2 25.4 C 1254.2 73.6 1556.8 321 1556.8 477" fill="url(#lg-0.8476177351059386)" opacity="0.4" style="opacity:0.4;animation-play-state:paused" ></path>
<path d="M 1542.8 477 C 1542.8 655 1273.6 865 1104.4 919.8 C 935.2 974.6 550.8 993.4 446.4 850 C 342 706.6 380 275.4 484.4 131.2 C 588.8 -13 918 30 1087.2 84.8 C 1256.4 139.6 1542.8 299 1542.8 477" fill="url(#lg-0.8476177351059386)" opacity="0.4" style="opacity:0.4;animation-play-state:paused" ></path></g></svg>